# Blender v2.82 (sub 7) OBJ File: 'Crate.blend'
# www.blender.org
o Cube
v 0.704030 0.704030 -1.000000
v 0.704030 1.000000 -0.704030
v 1.000000 0.704030 -0.704030
v 0.704030 -1.000000 -0.704030
v 0.704030 -0.704030 -1.000000
v 1.000000 -0.704030 -0.704030
v 1.000000 0.704030 0.704030
v 0.704030 1.000000 0.704030
v 0.704030 0.704030 1.000000
v 1.000000 -0.704030 0.704030
v 0.704030 -0.704030 1.000000
v 0.704030 -1.000000 0.704030
v -0.704030 0.704030 -1.000000
v -1.000000 0.704030 -0.704030
v -0.704030 1.000000 -0.704030
v -1.000000 -0.704030 -0.704030
v -0.704030 -0.704030 -1.000000
v -0.704030 -1.000000 -0.704030
v -1.000000 0.704030 0.704030
v -0.704030 0.704030 1.000000
v -0.704030 1.000000 0.704030
v -0.704030 -1.000000 0.704030
v -0.704030 -0.704030 1.000000
v -1.000000 -0.704030 0.704030
v -0.964941 -1.000000 -0.964941
v -0.964941 -1.000000 0.964941
v -1.000000 -0.964941 0.964941
v -1.000000 -0.964941 -0.964941
v 0.964941 -1.000000 -0.964941
v -0.964941 -0.964941 -1.000000
v 0.964941 -0.964941 -1.000000
v 1.000000 0.964941 -0.964941
v 1.000000 -0.964941 -0.964941
v 0.964941 0.964941 -1.000000
v -0.964941 -0.964941 1.000000
v -0.964941 0.964941 1.000000
v -1.000000 0.964941 0.964941
v 0.964941 0.964941 1.000000
v 0.964941 -0.964941 1.000000
v 1.000000 -0.964941 0.964941
v 1.000000 0.964941 0.964941
v -0.964941 0.964941 -1.000000
v -1.000000 0.964941 -0.964941
v 0.964941 1.000000 0.964941
v -0.964941 1.000000 0.964941
v 0.964941 1.000000 -0.964941
v 0.964941 -1.000000 0.964941
v -0.964941 1.000000 -0.964941
v -0.704030 -0.908118 -0.704030
v -0.704030 -0.908118 0.704030
v -0.908118 -0.704030 0.704030
v -0.908118 -0.704030 -0.704030
v 0.704030 -0.908118 -0.704030
v -0.704030 -0.704030 -0.908118
v 0.704030 -0.704030 -0.908118
v 0.908118 0.704030 -0.704030
v 0.908118 -0.704030 -0.704030
v 0.704030 0.704030 -0.908118
v -0.704030 -0.704030 0.908118
v -0.704030 0.704030 0.908118
v -0.908118 0.704030 0.704030
v 0.704030 0.704030 0.908118
v 0.704030 -0.704030 0.908118
v 0.908118 -0.704030 0.704030
v 0.908118 0.704030 0.704030
v -0.704030 0.704030 -0.908118
v -0.908118 0.704030 -0.704030
v 0.704030 0.908118 0.704030
v -0.704030 0.908118 0.704030
v 0.704030 0.908118 -0.704030
v 0.704030 -0.908118 0.704030
v -0.704030 0.908118 -0.704030
v -0.704030 -0.921244 -0.704030
v -0.704030 -0.921244 0.704030
v -0.921244 -0.704030 0.704030
v -0.921244 -0.704030 -0.704030
v 0.704030 -0.921244 -0.704030
v -0.704030 -0.704030 -0.921244
v 0.704030 -0.704030 -0.921244
v 0.921244 0.704030 -0.704030
v 0.921244 -0.704030 -0.704030
v 0.704030 0.704030 -0.921244
v -0.704030 -0.704030 0.921244
v -0.704030 0.704030 0.921244
v -0.921244 0.704030 0.704030
v 0.704030 0.704030 0.921244
v 0.704030 -0.704030 0.921244
v 0.921244 -0.704030 0.704030
v 0.921244 0.704030 0.704030
v -0.704030 0.704030 -0.921244
v -0.921244 0.704030 -0.704030
v 0.704030 0.921244 0.704030
v -0.704030 0.921244 0.704030
v 0.704030 0.921244 -0.704030
v 0.704030 -0.921244 0.704030
v -0.704030 0.921244 -0.704030
vt 0.588004 0.536996
vt 0.411996 0.536996
vt 0.411996 0.536996
vt 0.411996 0.213004
vt 0.588004 0.213004
vt 0.588004 0.213004
vt 0.838004 0.713004
vt 0.838004 0.536996
vt 0.838004 0.536996
vt 0.411996 0.286996
vt 0.411996 0.463004
vt 0.411996 0.463004
vt 0.588004 0.286996
vt 0.411996 0.286996
vt 0.620618 0.495618
vt 0.625000 0.495618
vt 0.620618 0.500000
vt 0.370618 0.504382
vt 0.370618 0.500000
vt 0.375000 0.504382
vt 0.620618 0.745618
vt 0.625000 0.745618
vt 0.620618 0.750000
vt 0.379382 0.745618
vt 0.379382 0.750000
vt 0.375000 0.745618
vt 0.620618 0.254382
vt 0.620618 0.250000
vt 0.625000 0.254382
vt 0.379382 0.245618
vt 0.379382 0.250000
vt 0.375000 0.245618
vt 0.620618 0.004382
vt 0.620618 0.000000
vt 0.625000 0.004382
vt 0.129382 0.745618
vt 0.129382 0.750000
vt 0.125000 0.745618
vt 0.125000 0.504382
vt 0.129382 0.504382
vt 0.379382 0.504382
vt 0.620618 0.504382
vt 0.620618 0.995618
vt 0.379382 1.000000
vt 0.379382 0.995618
vt 0.379382 0.754382
vt 0.620618 0.754382
vt 0.379382 0.254382
vt 0.620618 0.245618
vt 0.870618 0.745618
vt 0.629382 0.750000
vt 0.629382 0.745618
vt 0.629382 0.504382
vt 0.370618 0.745618
vt 0.870618 0.504382
vt 0.875000 0.745618
vt 0.870618 0.500000
vt 0.411996 0.786996
vt 0.411996 0.963004
vt 0.411996 0.963004
vt 0.161996 0.536996
vt 0.411996 0.036996
vt 0.379382 0.004382
vt 0.338004 0.536996
vt 0.379382 0.495618
vt 0.588004 0.036996
vt 0.588004 0.786996
vt 0.411996 0.713004
vt 0.661996 0.713004
vt 0.588004 0.963004
vt 0.661996 0.536996
vt 0.588004 0.713004
vt 0.161996 0.713004
vt 0.588004 0.463004
vt 0.338004 0.713004
vt 0.161996 0.536996
vt 0.161996 0.713004
vt 0.161996 0.713004
vt 0.338004 0.713004
vt 0.338004 0.536996
vt 0.338004 0.536996
vt 0.588004 0.036996
vt 0.411996 0.036996
vt 0.411996 0.036996
vt 0.661996 0.536996
vt 0.661996 0.713004
vt 0.661996 0.713004
vt 0.588004 0.463004
vt 0.588004 0.286996
vt 0.588004 0.286996
vt 0.588004 0.963004
vt 0.588004 0.963004
vt 0.838004 0.713004
vt 0.588004 0.786996
vt 0.588004 0.536996
vt 0.411996 0.786996
vt 0.411996 0.713004
vt 0.411996 0.213004
vt 0.588004 0.713004
vt 0.161996 0.536996
vt 0.588004 0.036996
vt 0.411996 0.213004
vt 0.588004 0.786996
vt 0.411996 0.963004
vt 0.411996 0.786996
vt 0.838004 0.536996
vt 0.661996 0.536996
vt 0.588004 0.536996
vt 0.411996 0.713004
vt 0.411996 0.536996
vt 0.411996 0.463004
vt 0.411996 0.286996
vt 0.338004 0.713004
vt 0.588004 0.713004
vt 0.588004 0.213004
vt 0.838004 0.713004
vt 0.588004 0.463004
vt 0.129382 0.500000
vt 0.620618 1.000000
vt 0.870618 0.750000
vt 0.370618 0.750000
vt 0.875000 0.504382
vt 0.629382 0.500000
vn 0.0000 0.0000 1.0000
vn 1.0000 0.0000 0.0000
vn 0.0000 1.0000 0.0000
vn 0.5774 0.5774 -0.5774
vn 0.5774 -0.5774 -0.5774
vn 0.5774 0.5774 0.5774
vn 0.5774 -0.5774 0.5774
vn -0.5774 0.5774 -0.5774
vn -0.5774 -0.5774 -0.5774
vn -0.5774 0.5774 0.5774
vn -0.5774 -0.5774 0.5774
vn -0.7071 -0.7071 0.0000
vn 0.0000 -0.7071 -0.7071
vn 0.7071 0.0000 -0.7071
vn -0.7071 0.0000 0.7071
vn 0.7071 0.0000 0.7071
vn -0.7071 0.0000 -0.7071
vn 0.0000 0.7071 0.7071
vn 0.7071 0.7071 0.0000
vn 0.0000 -0.7071 0.7071
vn -0.7071 0.7071 0.0000
vn 0.0000 0.7071 -0.7071
vn 0.7071 -0.7071 0.0000
vn 0.0000 -1.0000 0.0000
vn -1.0000 0.0000 0.0000
vn 0.0000 0.0000 -1.0000
s off
f 3/1/1 57/2/1 6/3/1
f 16/4/1 67/5/1 14/6/1
f 21/7/2 72/8/2 15/9/2
f 17/10/3 55/11/3 5/12/3
f 13/13/2 54/14/2 17/10/2
f 34/15/4 46/16/4 32/17/4
f 29/18/5 31/19/5 33/20/5
f 41/21/6 44/22/6 38/23/6
f 40/24/7 39/25/7 47/26/7
f 42/27/8 43/28/8 48/29/8
f 28/30/9 30/31/9 25/32/9
f 37/33/10 36/34/10 45/35/10
f 26/36/11 35/37/11 27/38/11
f 26/36/12 28/39/12 25/40/12
f 25/40/13 31/19/13 29/18/13
f 33/41/14 34/15/14 32/42/14
f 36/43/15 27/44/15 35/45/15
f 39/46/16 41/21/16 38/47/16
f 30/48/17 43/49/17 42/27/17
f 45/50/18 38/51/18 44/52/18
f 44/52/19 32/42/19 46/53/19
f 47/54/20 35/37/20 26/36/20
f 48/55/21 37/56/21 45/50/21
f 46/53/22 42/57/22 48/55/22
f 29/18/23 40/24/23 47/54/23
f 11/58/3 59/59/3 23/60/3
f 18/61/24 26/36/24 25/40/24
f 24/62/25 28/30/25 27/63/25
f 4/64/24 25/40/24 29/18/24
f 17/10/26 31/65/26 30/48/26
f 3/1/2 33/41/2 32/42/2
f 5/12/26 34/15/26 31/65/26
f 23/60/1 36/43/1 35/45/1
f 19/66/25 27/63/25 37/33/25
f 9/67/1 39/46/1 38/47/1
f 10/68/2 41/21/2 40/24/2
f 13/13/26 30/48/26 42/27/26
f 16/4/25 43/49/25 28/30/25
f 8/69/3 45/50/3 44/52/3
f 20/70/1 38/47/1 36/43/1
f 2/71/3 44/52/3 46/53/3
f 7/72/2 32/42/2 41/21/2
f 22/73/24 47/54/24 26/36/24
f 11/58/1 35/45/1 39/46/1
f 21/7/3 48/55/3 45/50/3
f 14/6/25 37/33/25 43/49/25
f 15/9/3 46/53/3 48/55/3
f 1/74/26 42/27/26 34/15/26
f 12/75/24 29/18/24 47/54/24
f 6/3/2 40/24/2 33/41/2
f 49/76/25 74/77/25 50/78/25
f 71/79/2 77/80/2 53/81/2
f 61/82/1 75/83/1 51/84/1
f 70/85/2 92/86/2 68/87/2
f 58/88/3 90/89/3 66/90/3
f 59/59/25 84/91/25 60/92/25
f 14/6/24 61/82/24 19/66/24
f 8/69/26 69/93/26 21/7/26
f 5/12/25 58/88/25 1/74/25
f 15/9/1 70/85/1 2/71/1
f 20/70/24 62/94/24 9/67/24
f 23/60/2 60/92/2 20/70/2
f 1/74/24 66/90/24 13/13/24
f 2/71/25 68/87/25 8/69/25
f 19/66/26 51/84/26 24/62/26
f 12/75/25 53/81/25 4/64/25
f 18/61/2 50/78/2 22/73/2
f 7/72/24 56/95/24 3/1/24
f 9/67/25 63/96/25 11/58/25
f 6/3/3 64/97/3 10/68/3
f 24/62/3 52/98/3 16/4/3
f 22/73/26 71/79/26 12/75/26
f 10/68/26 65/99/26 7/72/26
f 4/64/1 49/76/1 18/61/1
f 77/80/24 74/77/24 73/100/24
f 85/101/25 76/102/25 75/83/25
f 86/103/1 83/104/1 87/105/1
f 96/106/3 92/86/3 94/107/3
f 80/108/2 88/109/2 81/110/2
f 90/89/26 79/111/26 78/112/26
f 65/99/3 80/108/3 56/95/3
f 62/94/2 87/105/2 63/96/2
f 57/2/24 88/109/24 64/97/24
f 51/84/24 76/102/24 52/98/24
f 50/78/1 95/113/1 71/79/1
f 64/97/1 89/114/1 65/99/1
f 53/81/26 73/100/26 49/76/26
f 63/96/24 83/104/24 59/59/24
f 66/90/25 78/112/25 54/14/25
f 54/14/24 79/111/24 55/11/24
f 69/93/25 96/106/25 72/8/25
f 52/98/26 91/115/26 67/5/26
f 56/95/26 81/110/26 57/2/26
f 67/5/3 85/101/3 61/82/3
f 68/87/1 93/116/1 69/93/1
f 55/11/2 82/117/2 58/88/2
f 72/8/26 94/107/26 70/85/26
f 60/92/3 86/103/3 62/94/3
f 3/1/1 56/95/1 57/2/1
f 16/4/1 52/98/1 67/5/1
f 21/7/2 69/93/2 72/8/2
f 17/10/3 54/14/3 55/11/3
f 13/13/2 66/90/2 54/14/2
f 26/36/12 27/38/12 28/39/12
f 25/40/13 30/118/13 31/19/13
f 33/41/14 31/65/14 34/15/14
f 36/43/15 37/119/15 27/44/15
f 39/46/16 40/24/16 41/21/16
f 30/48/17 28/30/17 43/49/17
f 45/50/18 36/120/18 38/51/18
f 44/52/19 41/21/19 32/42/19
f 47/54/20 39/121/20 35/37/20
f 48/55/21 43/122/21 37/56/21
f 46/53/22 34/123/22 42/57/22
f 29/18/23 33/41/23 40/24/23
f 11/58/3 63/96/3 59/59/3
f 18/61/24 22/73/24 26/36/24
f 24/62/25 16/4/25 28/30/25
f 4/64/24 18/61/24 25/40/24
f 17/10/26 5/12/26 31/65/26
f 3/1/2 6/3/2 33/41/2
f 5/12/26 1/74/26 34/15/26
f 23/60/1 20/70/1 36/43/1
f 19/66/25 24/62/25 27/63/25
f 9/67/1 11/58/1 39/46/1
f 10/68/2 7/72/2 41/21/2
f 13/13/26 17/10/26 30/48/26
f 16/4/25 14/6/25 43/49/25
f 8/69/3 21/7/3 45/50/3
f 20/70/1 9/67/1 38/47/1
f 2/71/3 8/69/3 44/52/3
f 7/72/2 3/1/2 32/42/2
f 22/73/24 12/75/24 47/54/24
f 11/58/1 23/60/1 35/45/1
f 21/7/3 15/9/3 48/55/3
f 14/6/25 19/66/25 37/33/25
f 15/9/3 2/71/3 46/53/3
f 1/74/26 13/13/26 42/27/26
f 12/75/24 4/64/24 29/18/24
f 6/3/2 10/68/2 40/24/2
f 49/76/25 73/100/25 74/77/25
f 71/79/2 95/113/2 77/80/2
f 61/82/1 85/101/1 75/83/1
f 70/85/2 94/107/2 92/86/2
f 58/88/3 82/117/3 90/89/3
f 59/59/25 83/104/25 84/91/25
f 14/6/24 67/5/24 61/82/24
f 8/69/26 68/87/26 69/93/26
f 5/12/25 55/11/25 58/88/25
f 15/9/1 72/8/1 70/85/1
f 20/70/24 60/92/24 62/94/24
f 23/60/2 59/59/2 60/92/2
f 1/74/24 58/88/24 66/90/24
f 2/71/25 70/85/25 68/87/25
f 19/66/26 61/82/26 51/84/26
f 12/75/25 71/79/25 53/81/25
f 18/61/2 49/76/2 50/78/2
f 7/72/24 65/99/24 56/95/24
f 9/67/25 62/94/25 63/96/25
f 6/3/3 57/2/3 64/97/3
f 24/62/3 51/84/3 52/98/3
f 22/73/26 50/78/26 71/79/26
f 10/68/26 64/97/26 65/99/26
f 4/64/1 53/81/1 49/76/1
f 77/80/24 95/113/24 74/77/24
f 85/101/25 91/115/25 76/102/25
f 86/103/1 84/91/1 83/104/1
f 96/106/3 93/116/3 92/86/3
f 80/108/2 89/114/2 88/109/2
f 90/89/26 82/117/26 79/111/26
f 65/99/3 89/114/3 80/108/3
f 62/94/2 86/103/2 87/105/2
f 57/2/24 81/110/24 88/109/24
f 51/84/24 75/83/24 76/102/24
f 50/78/1 74/77/1 95/113/1
f 64/97/1 88/109/1 89/114/1
f 53/81/26 77/80/26 73/100/26
f 63/96/24 87/105/24 83/104/24
f 66/90/25 90/89/25 78/112/25
f 54/14/24 78/112/24 79/111/24
f 69/93/25 93/116/25 96/106/25
f 52/98/26 76/102/26 91/115/26
f 56/95/26 80/108/26 81/110/26
f 67/5/3 91/115/3 85/101/3
f 68/87/1 92/86/1 93/116/1
f 55/11/2 79/111/2 82/117/2
f 72/8/26 96/106/26 94/107/26
f 60/92/3 84/91/3 86/103/3
