# Blender v2.82 (sub 7) OBJ File: ''
# www.blender.org
mtllib Hemisphere.mtl
o Sphere
v 0.000000 0.707107 -0.707107
v 0.191342 0.923880 -0.331414
v 0.353553 0.707107 -0.612372
v 0.461940 0.382683 -0.800103
v 0.500000 -0.000000 -0.866025
v -0.000000 1.000000 -0.000000
v 0.331413 0.923880 -0.191342
v 0.612372 0.707107 -0.353553
v 0.800103 0.382683 -0.461940
v 0.866025 -0.000000 -0.500000
v 0.382683 0.923880 -0.000000
v 0.707107 0.707107 -0.000000
v 0.923879 0.382683 -0.000000
v 1.000000 -0.000000 -0.000000
v 0.331413 0.923880 0.191341
v 0.612372 0.707107 0.353553
v 0.800103 0.382683 0.461940
v 0.866025 -0.000000 0.500000
v 0.191342 0.923880 0.331413
v 0.353553 0.707107 0.612372
v 0.461940 0.382683 0.800103
v 0.500000 -0.000000 0.866025
v -0.000000 0.923880 0.382683
v -0.000000 0.707107 0.707106
v -0.000000 0.382683 0.923879
v -0.000000 -0.000000 1.000000
v -0.191342 0.923880 0.331413
v -0.353553 0.707107 0.612372
v -0.461940 0.382683 0.800103
v -0.500000 -0.000000 0.866025
v -0.191342 -0.923880 0.331413
v -0.331413 0.923880 0.191341
v -0.612372 0.707107 0.353553
v -0.800103 0.382683 0.461940
v -0.866025 -0.000000 0.500000
v -0.382683 0.923880 -0.000000
v -0.707107 0.707107 -0.000000
v -0.923879 0.382683 -0.000000
v -1.000000 -0.000000 -0.000000
v -0.331413 0.923880 -0.191342
v -0.612372 0.707107 -0.353554
v -0.800103 0.382683 -0.461940
v -0.866025 -0.000000 -0.500000
v -0.191342 0.923880 -0.331414
v -0.353553 0.707107 -0.612373
v -0.461940 0.382683 -0.800103
v -0.500000 -0.000000 -0.866025
v 0.000000 0.923880 -0.382683
v 0.000000 0.382683 -0.923880
v 0.000000 -0.000000 -1.000000
vt 0.750000 0.625000
vt 0.666667 0.750000
vt 0.666667 0.625000
vt 0.750000 0.875000
vt 0.708333 1.000000
vt 0.666667 0.875000
vt 0.666667 0.500000
vt 0.750000 0.500000
vt 0.750000 0.750000
vt 0.583333 0.500000
vt 0.583333 0.750000
vt 0.583333 0.625000
vt 0.625000 1.000000
vt 0.583333 0.875000
vt 0.500000 0.500000
vt 0.500000 0.750000
vt 0.500000 0.625000
vt 0.541667 1.000000
vt 0.500000 0.875000
vt 0.416667 0.625000
vt 0.458333 1.000000
vt 0.416667 0.875000
vt 0.416667 0.500000
vt 0.416667 0.750000
vt 0.333333 0.625000
vt 0.375000 1.000000
vt 0.333333 0.875000
vt 0.333333 0.500000
vt 0.333333 0.750000
vt 0.250000 0.500000
vt 0.250000 0.750000
vt 0.250000 0.625000
vt 0.291667 1.000000
vt 0.250000 0.875000
vt 0.166667 0.875000
vt 0.166667 0.750000
vt 0.166667 0.625000
vt 0.208333 1.000000
vt 0.166667 0.500000
vt 0.083333 0.625000
vt 0.125000 1.000000
vt 0.083333 0.875000
vt 0.083333 0.500000
vt 0.083333 0.750000
vt 0.041667 1.000000
vt 0.000000 0.875000
vt 0.000000 0.500000
vt 0.000000 0.750000
vt 0.000000 0.625000
vt 1.000000 0.625000
vt 0.916667 0.500000
vt 1.000000 0.500000
vt 1.000000 0.750000
vt 0.916667 0.875000
vt 0.916667 0.750000
vt 0.916667 0.625000
vt 1.000000 0.875000
vt 0.958333 1.000000
vt 0.833333 0.625000
vt 0.875000 1.000000
vt 0.833333 0.875000
vt 0.833333 0.500000
vt 0.833333 0.750000
vt 0.791667 1.000000
vn 0.2175 0.5423 -0.8116
vn 0.0522 0.9794 -0.1948
vn 0.2542 0.1887 -0.9486
vn 0.1472 0.8224 -0.5495
vn 0.6944 0.1887 -0.6944
vn 0.4023 0.8224 -0.4023
vn 0.5941 0.5423 -0.5941
vn 0.1426 0.9794 -0.1426
vn 0.9486 0.1887 -0.2542
vn 0.5495 0.8224 -0.1472
vn 0.8116 0.5423 -0.2175
vn 0.1948 0.9794 -0.0522
vn 0.8116 0.5423 0.2175
vn 0.1948 0.9794 0.0522
vn 0.9486 0.1887 0.2542
vn 0.5495 0.8224 0.1472
vn 0.5941 0.5423 0.5941
vn 0.1426 0.9794 0.1426
vn 0.6944 0.1887 0.6944
vn 0.4023 0.8224 0.4023
vn 0.2542 0.1887 0.9486
vn 0.1472 0.8224 0.5495
vn 0.2175 0.5423 0.8116
vn 0.0522 0.9794 0.1948
vn -0.1472 0.8224 0.5495
vn -0.2175 0.5423 0.8116
vn -0.0522 0.9794 0.1948
vn -0.2542 0.1887 0.9486
vn -0.5941 0.5423 0.5941
vn -0.1426 0.9794 0.1426
vn -0.6944 0.1887 0.6944
vn -0.4023 0.8224 0.4023
vn -0.1948 0.9794 0.0522
vn -0.9486 0.1887 0.2542
vn -0.5495 0.8224 0.1472
vn -0.8116 0.5423 0.2175
vn -0.9486 0.1887 -0.2542
vn -0.5495 0.8224 -0.1472
vn -0.8116 0.5423 -0.2175
vn -0.1948 0.9794 -0.0522
vn -0.5941 0.5423 -0.5941
vn -0.1426 0.9794 -0.1426
vn -0.6944 0.1887 -0.6944
vn -0.4023 0.8224 -0.4023
vn -0.2175 0.5423 -0.8116
vn -0.0522 0.9794 -0.1948
vn -0.2542 0.1887 -0.9486
vn -0.1472 0.8224 -0.5495
usemtl None
s off
f 49/1/1 3/2/1 4/3/1
f 48/4/2 6/5/2 2/6/2
f 49/1/3 5/7/3 50/8/3
f 48/4/4 3/2/4 1/9/4
f 4/3/5 10/10/5 5/7/5
f 2/6/6 8/11/6 3/2/6
f 3/2/7 9/12/7 4/3/7
f 2/6/8 6/13/8 7/14/8
f 9/12/9 14/15/9 10/10/9
f 7/14/10 12/16/10 8/11/10
f 8/11/11 13/17/11 9/12/11
f 7/14/12 6/18/12 11/19/12
f 12/16/13 17/20/13 13/17/13
f 11/19/14 6/21/14 15/22/14
f 13/17/15 18/23/15 14/15/15
f 11/19/16 16/24/16 12/16/16
f 16/24/17 21/25/17 17/20/17
f 15/22/18 6/26/18 19/27/18
f 17/20/19 22/28/19 18/23/19
f 15/22/20 20/29/20 16/24/20
f 21/25/21 26/30/21 22/28/21
f 19/27/22 24/31/22 20/29/22
f 20/29/23 25/32/23 21/25/23
f 19/27/24 6/33/24 23/34/24
f 24/31/25 27/35/25 28/36/25
f 25/32/26 28/36/26 29/37/26
f 23/34/27 6/38/27 27/35/27
f 25/32/28 30/39/28 26/30/28
f 28/36/29 34/40/29 29/37/29
f 27/35/30 6/41/30 32/42/30
f 29/37/31 35/43/31 30/39/31
f 28/36/32 32/42/32 33/44/32
f 32/42/33 6/45/33 36/46/33
f 34/40/34 39/47/34 35/43/34
f 33/44/35 36/46/35 37/48/35
f 33/44/36 38/49/36 34/40/36
f 38/50/37 43/51/37 39/52/37
f 37/53/38 40/54/38 41/55/38
f 37/53/39 42/56/39 38/50/39
f 36/57/40 6/58/40 40/54/40
f 41/55/41 46/59/41 42/56/41
f 40/54/42 6/60/42 44/61/42
f 42/56/43 47/62/43 43/51/43
f 40/54/44 45/63/44 41/55/44
f 45/63/45 49/1/45 46/59/45
f 44/61/46 6/64/46 48/4/46
f 47/62/47 49/1/47 50/8/47
f 44/61/48 1/9/48 45/63/48
f 49/1/1 1/9/1 3/2/1
f 49/1/3 4/3/3 5/7/3
f 48/4/4 2/6/4 3/2/4
f 4/3/5 9/12/5 10/10/5
f 2/6/6 7/14/6 8/11/6
f 3/2/7 8/11/7 9/12/7
f 9/12/9 13/17/9 14/15/9
f 7/14/10 11/19/10 12/16/10
f 8/11/11 12/16/11 13/17/11
f 12/16/13 16/24/13 17/20/13
f 13/17/15 17/20/15 18/23/15
f 11/19/16 15/22/16 16/24/16
f 16/24/17 20/29/17 21/25/17
f 17/20/19 21/25/19 22/28/19
f 15/22/20 19/27/20 20/29/20
f 21/25/21 25/32/21 26/30/21
f 19/27/22 23/34/22 24/31/22
f 20/29/23 24/31/23 25/32/23
f 24/31/25 23/34/25 27/35/25
f 25/32/26 24/31/26 28/36/26
f 25/32/28 29/37/28 30/39/28
f 28/36/29 33/44/29 34/40/29
f 29/37/31 34/40/31 35/43/31
f 28/36/32 27/35/32 32/42/32
f 34/40/34 38/49/34 39/47/34
f 33/44/35 32/42/35 36/46/35
f 33/44/36 37/48/36 38/49/36
f 38/50/37 42/56/37 43/51/37
f 37/53/38 36/57/38 40/54/38
f 37/53/39 41/55/39 42/56/39
f 41/55/41 45/63/41 46/59/41
f 42/56/43 46/59/43 47/62/43
f 40/54/44 44/61/44 45/63/44
f 45/63/45 1/9/45 49/1/45
f 47/62/47 46/59/47 49/1/47
f 44/61/48 48/4/48 1/9/48
