# Blender v2.82 (sub 7) OBJ File: ''
# www.blender.org
mtllib LowPolySphere.mtl
o Sphere
v 0.000000 0.707107 -0.707107
v 0.000000 -0.382684 -0.923880
v 0.000000 -0.707107 -0.707107
v 0.000000 -0.923880 -0.382683
v 0.191342 0.923880 -0.331414
v 0.353553 0.707107 -0.612372
v 0.461940 0.382683 -0.800103
v 0.500000 -0.000000 -0.866025
v 0.461940 -0.382684 -0.800103
v 0.353553 -0.707107 -0.612372
v 0.191342 -0.923880 -0.331414
v -0.000000 1.000000 -0.000000
v 0.331413 0.923880 -0.191342
v 0.612372 0.707107 -0.353553
v 0.800103 0.382683 -0.461940
v 0.866025 -0.000000 -0.500000
v 0.800103 -0.382684 -0.461940
v 0.612372 -0.707107 -0.353553
v 0.331413 -0.923880 -0.191342
v 0.382683 0.923880 -0.000000
v 0.707107 0.707107 -0.000000
v 0.923879 0.382683 -0.000000
v 1.000000 -0.000000 -0.000000
v 0.923879 -0.382684 -0.000000
v 0.707107 -0.707107 -0.000000
v 0.382683 -0.923880 -0.000000
v 0.331413 0.923880 0.191341
v 0.612372 0.707107 0.353553
v 0.800103 0.382683 0.461940
v 0.866025 -0.000000 0.500000
v 0.800103 -0.382684 0.461940
v 0.612372 -0.707107 0.353553
v 0.331413 -0.923880 0.191342
v 0.191342 0.923880 0.331413
v 0.353553 0.707107 0.612372
v 0.461940 0.382683 0.800103
v 0.500000 -0.000000 0.866025
v 0.461940 -0.382684 0.800103
v 0.353553 -0.707107 0.612372
v 0.191342 -0.923880 0.331413
v -0.000000 0.923880 0.382683
v -0.000000 0.707107 0.707106
v -0.000000 0.382683 0.923879
v -0.000000 -0.000000 1.000000
v -0.000000 -0.382684 0.923879
v -0.000000 -0.707107 0.707106
v -0.000000 -0.923880 0.382683
v -0.191342 0.923880 0.331413
v -0.353553 0.707107 0.612372
v -0.461940 0.382683 0.800103
v -0.500000 -0.000000 0.866025
v -0.461940 -0.382684 0.800103
v -0.353553 -0.707107 0.612372
v -0.191342 -0.923880 0.331413
v -0.331413 0.923880 0.191341
v -0.612372 0.707107 0.353553
v -0.800103 0.382683 0.461940
v -0.866025 -0.000000 0.500000
v -0.800103 -0.382684 0.461940
v -0.612372 -0.707107 0.353553
v -0.331413 -0.923880 0.191341
v -0.382683 0.923880 -0.000000
v -0.707107 0.707107 -0.000000
v -0.923879 0.382683 -0.000000
v -1.000000 -0.000000 -0.000000
v -0.923879 -0.382684 -0.000000
v -0.707107 -0.707107 -0.000000
v -0.382683 -0.923880 -0.000000
v -0.331413 0.923880 -0.191342
v -0.612372 0.707107 -0.353554
v -0.800103 0.382683 -0.461940
v -0.866025 -0.000000 -0.500000
v -0.800103 -0.382684 -0.461940
v -0.612372 -0.707107 -0.353554
v -0.331413 -0.923880 -0.191342
v 0.000000 -1.000000 -0.000000
v -0.191342 0.923880 -0.331414
v -0.353553 0.707107 -0.612373
v -0.461940 0.382683 -0.800103
v -0.500000 -0.000000 -0.866025
v -0.461940 -0.382684 -0.800103
v -0.353553 -0.707107 -0.612373
v -0.191342 -0.923880 -0.331414
v 0.000000 0.923880 -0.382683
v 0.000000 0.382683 -0.923880
v 0.000000 -0.000000 -1.000000
vt 0.750000 0.250000
vt 0.666667 0.125000
vt 0.750000 0.125000
vt 0.750000 0.500000
vt 0.666667 0.375000
vt 0.750000 0.375000
vt 0.750000 0.625000
vt 0.666667 0.750000
vt 0.666667 0.625000
vt 0.750000 0.875000
vt 0.708333 1.000000
vt 0.666667 0.875000
vt 0.708333 0.000000
vt 0.666667 0.250000
vt 0.666667 0.500000
vt 0.750000 0.750000
vt 0.583333 0.625000
vt 0.625000 1.000000
vt 0.583333 0.875000
vt 0.625000 0.000000
vt 0.583333 0.125000
vt 0.583333 0.250000
vt 0.583333 0.500000
vt 0.583333 0.750000
vt 0.583333 0.375000
vt 0.541667 0.000000
vt 0.500000 0.125000
vt 0.500000 0.250000
vt 0.500000 0.500000
vt 0.500000 0.750000
vt 0.500000 0.375000
vt 0.500000 0.625000
vt 0.541667 1.000000
vt 0.500000 0.875000
vt 0.416667 0.750000
vt 0.416667 0.125000
vt 0.416667 0.375000
vt 0.416667 0.625000
vt 0.458333 1.000000
vt 0.416667 0.875000
vt 0.458333 0.000000
vt 0.416667 0.250000
vt 0.416667 0.500000
vt 0.333333 0.125000
vt 0.333333 0.375000
vt 0.333333 0.625000
vt 0.375000 1.000000
vt 0.333333 0.875000
vt 0.375000 0.000000
vt 0.333333 0.250000
vt 0.333333 0.500000
vt 0.333333 0.750000
vt 0.291667 1.000000
vt 0.250000 0.875000
vt 0.291667 0.000000
vt 0.250000 0.125000
vt 0.250000 0.250000
vt 0.250000 0.500000
vt 0.250000 0.750000
vt 0.250000 0.375000
vt 0.250000 0.625000
vt 0.166667 0.250000
vt 0.166667 0.500000
vt 0.166667 0.875000
vt 0.166667 0.750000
vt 0.166667 0.125000
vt 0.166667 0.375000
vt 0.166667 0.625000
vt 0.208333 1.000000
vt 0.208333 0.000000
vt 0.083333 0.125000
vt 0.083333 0.375000
vt 0.083333 0.625000
vt 0.125000 1.000000
vt 0.083333 0.875000
vt 0.125000 0.000000
vt 0.083333 0.250000
vt 0.083333 0.500000
vt 0.083333 0.750000
vt 0.000000 0.375000
vt 0.000000 0.625000
vt 0.041667 1.000000
vt 0.000000 0.875000
vt 0.041667 0.000000
vt 0.000000 0.125000
vt 0.000000 0.250000
vt 0.000000 0.500000
vt 0.000000 0.750000
vt 0.958333 0.000000
vt 1.000000 0.125000
vt 0.916667 0.125000
vt 1.000000 0.375000
vt 0.916667 0.250000
vt 1.000000 0.250000
vt 1.000000 0.625000
vt 0.916667 0.500000
vt 1.000000 0.500000
vt 1.000000 0.750000
vt 0.916667 0.875000
vt 0.916667 0.750000
vt 0.916667 0.375000
vt 0.916667 0.625000
vt 1.000000 0.875000
vt 0.958333 1.000000
vt 0.833333 0.500000
vt 0.833333 0.750000
vt 0.833333 0.250000
vt 0.833333 0.125000
vt 0.833333 0.375000
vt 0.833333 0.625000
vt 0.875000 1.000000
vt 0.833333 0.875000
vt 0.875000 0.000000
vt 0.791667 1.000000
vt 0.791667 0.000000
vn 0.1472 -0.8224 -0.5495
vn 0.2542 -0.1887 -0.9486
vn 0.2175 0.5423 -0.8116
vn 0.0522 0.9794 -0.1948
vn 0.0522 -0.9794 -0.1948
vn 0.2175 -0.5423 -0.8116
vn 0.2542 0.1887 -0.9486
vn 0.1472 0.8224 -0.5495
vn 0.5941 0.5423 -0.5941
vn 0.1426 0.9794 -0.1426
vn 0.1426 -0.9794 -0.1426
vn 0.5941 -0.5423 -0.5941
vn 0.6944 0.1887 -0.6944
vn 0.4023 0.8224 -0.4023
vn 0.4023 -0.8224 -0.4023
vn 0.6944 -0.1887 -0.6944
vn 0.1948 -0.9794 -0.0522
vn 0.8116 -0.5423 -0.2175
vn 0.9486 0.1887 -0.2542
vn 0.5495 0.8224 -0.1472
vn 0.5495 -0.8224 -0.1472
vn 0.9486 -0.1887 -0.2542
vn 0.8116 0.5423 -0.2175
vn 0.1948 0.9794 -0.0522
vn 0.5495 0.8224 0.1472
vn 0.5495 -0.8224 0.1472
vn 0.9486 -0.1887 0.2542
vn 0.8116 0.5423 0.2175
vn 0.1948 0.9794 0.0522
vn 0.1948 -0.9794 0.0522
vn 0.8116 -0.5423 0.2175
vn 0.9486 0.1887 0.2542
vn 0.4023 -0.8224 0.4023
vn 0.6944 -0.1887 0.6944
vn 0.5941 0.5423 0.5941
vn 0.1426 0.9794 0.1426
vn 0.1426 -0.9794 0.1426
vn 0.5941 -0.5423 0.5941
vn 0.6944 0.1887 0.6944
vn 0.4023 0.8224 0.4023
vn 0.0522 0.9794 0.1948
vn 0.0522 -0.9794 0.1948
vn 0.2175 -0.5423 0.8116
vn 0.2542 0.1887 0.9486
vn 0.1472 0.8224 0.5495
vn 0.1472 -0.8224 0.5495
vn 0.2542 -0.1887 0.9486
vn 0.2175 0.5423 0.8116
vn -0.2175 -0.5423 0.8116
vn -0.2542 0.1887 0.9486
vn -0.1472 0.8224 0.5495
vn -0.1472 -0.8224 0.5495
vn -0.2542 -0.1887 0.9486
vn -0.2175 0.5423 0.8116
vn -0.0522 0.9794 0.1948
vn -0.0522 -0.9794 0.1948
vn -0.4023 -0.8224 0.4023
vn -0.6944 -0.1887 0.6944
vn -0.5941 0.5423 0.5941
vn -0.1426 0.9794 0.1426
vn -0.1426 -0.9794 0.1426
vn -0.5941 -0.5423 0.5941
vn -0.6944 0.1887 0.6944
vn -0.4023 0.8224 0.4023
vn -0.9486 -0.1887 0.2542
vn -0.8116 0.5423 0.2175
vn -0.1948 0.9794 0.0522
vn -0.1948 -0.9794 0.0522
vn -0.8116 -0.5423 0.2175
vn -0.9486 0.1887 0.2542
vn -0.5495 0.8224 0.1472
vn -0.5495 -0.8224 0.1472
vn -0.1948 -0.9794 -0.0522
vn -0.8116 -0.5423 -0.2175
vn -0.9486 0.1887 -0.2542
vn -0.5495 0.8224 -0.1472
vn -0.5495 -0.8224 -0.1472
vn -0.9486 -0.1887 -0.2542
vn -0.8116 0.5423 -0.2175
vn -0.1948 0.9794 -0.0522
vn -0.6944 0.1887 -0.6944
vn -0.4023 0.8224 -0.4023
vn -0.4023 -0.8224 -0.4023
vn -0.6944 -0.1887 -0.6944
vn -0.5941 0.5423 -0.5941
vn -0.1426 0.9794 -0.1426
vn -0.1426 -0.9794 -0.1426
vn -0.5941 -0.5423 -0.5941
vn -0.1472 -0.8224 -0.5495
vn -0.2542 -0.1887 -0.9486
vn -0.2175 0.5423 -0.8116
vn -0.0522 0.9794 -0.1948
vn -0.0522 -0.9794 -0.1948
vn -0.2175 -0.5423 -0.8116
vn -0.2542 0.1887 -0.9486
vn -0.1472 0.8224 -0.5495
usemtl None
s off
f 3/1/1 11/2/1 4/3/1
f 86/4/2 9/5/2 2/6/2
f 85/7/3 6/8/3 7/9/3
f 84/10/4 12/11/4 5/12/4
f 76/13/5 4/3/5 11/2/5
f 2/6/6 10/14/6 3/1/6
f 85/7/7 8/15/7 86/4/7
f 84/10/8 6/8/8 1/16/8
f 6/8/9 15/17/9 7/9/9
f 5/12/10 12/18/10 13/19/10
f 76/20/11 11/2/11 19/21/11
f 9/5/12 18/22/12 10/14/12
f 7/9/13 16/23/13 8/15/13
f 5/12/14 14/24/14 6/8/14
f 11/2/15 18/22/15 19/21/15
f 8/15/16 17/25/16 9/5/16
f 76/26/17 19/21/17 26/27/17
f 17/25/18 25/28/18 18/22/18
f 15/17/19 23/29/19 16/23/19
f 13/19/20 21/30/20 14/24/20
f 18/22/21 26/27/21 19/21/21
f 16/23/22 24/31/22 17/25/22
f 14/24/23 22/32/23 15/17/23
f 13/19/24 12/33/24 20/34/24
f 20/34/25 28/35/25 21/30/25
f 25/28/26 33/36/26 26/27/26
f 23/29/27 31/37/27 24/31/27
f 21/30/28 29/38/28 22/32/28
f 20/34/29 12/39/29 27/40/29
f 76/41/30 26/27/30 33/36/30
f 24/31/31 32/42/31 25/28/31
f 22/32/32 30/43/32 23/29/32
f 32/42/33 40/44/33 33/36/33
f 30/43/34 38/45/34 31/37/34
f 28/35/35 36/46/35 29/38/35
f 27/40/36 12/47/36 34/48/36
f 76/49/37 33/36/37 40/44/37
f 31/37/38 39/50/38 32/42/38
f 29/38/39 37/51/39 30/43/39
f 27/40/40 35/52/40 28/35/40
f 34/48/41 12/53/41 41/54/41
f 76/55/42 40/44/42 47/56/42
f 38/45/43 46/57/43 39/50/43
f 36/46/44 44/58/44 37/51/44
f 34/48/45 42/59/45 35/52/45
f 39/50/46 47/56/46 40/44/46
f 37/51/47 45/60/47 38/45/47
f 35/52/48 43/61/48 36/46/48
f 45/60/49 53/62/49 46/57/49
f 43/61/50 51/63/50 44/58/50
f 42/59/51 48/64/51 49/65/51
f 46/57/52 54/66/52 47/56/52
f 44/58/53 52/67/53 45/60/53
f 43/61/54 49/65/54 50/68/54
f 41/54/55 12/69/55 48/64/55
f 76/70/56 47/56/56 54/66/56
f 53/62/57 61/71/57 54/66/57
f 51/63/58 59/72/58 52/67/58
f 49/65/59 57/73/59 50/68/59
f 48/64/60 12/74/60 55/75/60
f 76/76/61 54/66/61 61/71/61
f 53/62/62 59/72/62 60/77/62
f 50/68/63 58/78/63 51/63/63
f 49/65/64 55/75/64 56/79/64
f 58/78/65 66/80/65 59/72/65
f 56/79/66 64/81/66 57/73/66
f 55/75/67 12/82/67 62/83/67
f 76/84/68 61/71/68 68/85/68
f 59/72/69 67/86/69 60/77/69
f 57/73/70 65/87/70 58/78/70
f 56/79/71 62/83/71 63/88/71
f 60/77/72 68/85/72 61/71/72
f 76/89/73 68/90/73 75/91/73
f 66/92/74 74/93/74 67/94/74
f 64/95/75 72/96/75 65/97/75
f 63/98/76 69/99/76 70/100/76
f 67/94/77 75/91/77 68/90/77
f 65/97/78 73/101/78 66/92/78
f 63/98/79 71/102/79 64/95/79
f 62/103/80 12/104/80 69/99/80
f 71/102/81 80/105/81 72/96/81
f 69/99/82 78/106/82 70/100/82
f 75/91/83 82/107/83 83/108/83
f 72/96/84 81/109/84 73/101/84
f 70/100/85 79/110/85 71/102/85
f 69/99/86 12/111/86 77/112/86
f 76/113/87 75/91/87 83/108/87
f 74/93/88 81/109/88 82/107/88
f 82/107/89 4/3/89 83/108/89
f 80/105/90 2/6/90 81/109/90
f 78/106/91 85/7/91 79/110/91
f 77/112/92 12/114/92 84/10/92
f 76/115/93 83/108/93 4/3/93
f 82/107/94 2/6/94 3/1/94
f 80/105/95 85/7/95 86/4/95
f 77/112/96 1/16/96 78/106/96
f 3/1/1 10/14/1 11/2/1
f 86/4/2 8/15/2 9/5/2
f 85/7/3 1/16/3 6/8/3
f 2/6/6 9/5/6 10/14/6
f 85/7/7 7/9/7 8/15/7
f 84/10/8 5/12/8 6/8/8
f 6/8/9 14/24/9 15/17/9
f 9/5/12 17/25/12 18/22/12
f 7/9/13 15/17/13 16/23/13
f 5/12/14 13/19/14 14/24/14
f 11/2/15 10/14/15 18/22/15
f 8/15/16 16/23/16 17/25/16
f 17/25/18 24/31/18 25/28/18
f 15/17/19 22/32/19 23/29/19
f 13/19/20 20/34/20 21/30/20
f 18/22/21 25/28/21 26/27/21
f 16/23/22 23/29/22 24/31/22
f 14/24/23 21/30/23 22/32/23
f 20/34/25 27/40/25 28/35/25
f 25/28/26 32/42/26 33/36/26
f 23/29/27 30/43/27 31/37/27
f 21/30/28 28/35/28 29/38/28
f 24/31/31 31/37/31 32/42/31
f 22/32/32 29/38/32 30/43/32
f 32/42/33 39/50/33 40/44/33
f 30/43/34 37/51/34 38/45/34
f 28/35/35 35/52/35 36/46/35
f 31/37/38 38/45/38 39/50/38
f 29/38/39 36/46/39 37/51/39
f 27/40/40 34/48/40 35/52/40
f 38/45/43 45/60/43 46/57/43
f 36/46/44 43/61/44 44/58/44
f 34/48/45 41/54/45 42/59/45
f 39/50/46 46/57/46 47/56/46
f 37/51/47 44/58/47 45/60/47
f 35/52/48 42/59/48 43/61/48
f 45/60/49 52/67/49 53/62/49
f 43/61/50 50/68/50 51/63/50
f 42/59/51 41/54/51 48/64/51
f 46/57/52 53/62/52 54/66/52
f 44/58/53 51/63/53 52/67/53
f 43/61/54 42/59/54 49/65/54
f 53/62/57 60/77/57 61/71/57
f 51/63/58 58/78/58 59/72/58
f 49/65/59 56/79/59 57/73/59
f 53/62/62 52/67/62 59/72/62
f 50/68/63 57/73/63 58/78/63
f 49/65/64 48/64/64 55/75/64
f 58/78/65 65/87/65 66/80/65
f 56/79/66 63/88/66 64/81/66
f 59/72/69 66/80/69 67/86/69
f 57/73/70 64/81/70 65/87/70
f 56/79/71 55/75/71 62/83/71
f 60/77/72 67/86/72 68/85/72
f 66/92/74 73/101/74 74/93/74
f 64/95/75 71/102/75 72/96/75
f 63/98/76 62/103/76 69/99/76
f 67/94/77 74/93/77 75/91/77
f 65/97/78 72/96/78 73/101/78
f 63/98/79 70/100/79 71/102/79
f 71/102/81 79/110/81 80/105/81
f 69/99/82 77/112/82 78/106/82
f 75/91/83 74/93/83 82/107/83
f 72/96/84 80/105/84 81/109/84
f 70/100/85 78/106/85 79/110/85
f 74/93/88 73/101/88 81/109/88
f 82/107/89 3/1/89 4/3/89
f 80/105/90 86/4/90 2/6/90
f 78/106/91 1/16/91 85/7/91
f 82/107/94 81/109/94 2/6/94
f 80/105/95 79/110/95 85/7/95
f 77/112/96 84/10/96 1/16/96
